HIERARCHY
ROOT Hips
{
	OFFSET -14.64140 90.27770 -84.91600
	CHANNELS 6 Xposition Yposition Zposition Zrotation Xrotation Yrotation
	JOINT Spine
	{
		OFFSET 0.00000 13.20850 -1.60436
		CHANNELS 3 Zrotation Xrotation Yrotation
		JOINT Spine1
		{
			OFFSET 0.00000 8.61716 0.00000
			CHANNELS 3 Zrotation Xrotation Yrotation
			JOINT Spine2
			{
				OFFSET 0.00000 8.61717 0.00000
				CHANNELS 3 Zrotation Xrotation Yrotation
				JOINT Spine3
				{
					OFFSET 0.00000 8.61717 0.00000
					CHANNELS 3 Zrotation Xrotation Yrotation
					JOINT Neck
					{
						OFFSET 0.00000 11.07920 1.10792
						CHANNELS 3 Zrotation Xrotation Yrotation
						JOINT Neck1
						{
							OFFSET 0.00000 7.08032 0.00000
							CHANNELS 3 Zrotation Xrotation Yrotation
							JOINT Head
							{
								OFFSET 0.00000 7.08031 0.00000
								CHANNELS 3 Zrotation Xrotation Yrotation
								End site
								{
									OFFSET 0.00000 0.00000 0.00000
								}
							}
						}
					}
					JOINT RightShoulder
					{
						OFFSET -0.01000 7.91373 5.19711
						CHANNELS 3 Zrotation Xrotation Yrotation
						JOINT RightArm
						{
							OFFSET -18.41580 0.00000 0.00000
							CHANNELS 3 Zrotation Xrotation Yrotation
							JOINT RightForeArm
							{
								OFFSET -29.11090 0.00000 0.00000
								CHANNELS 3 Zrotation Xrotation Yrotation
								JOINT RightHand
								{
									OFFSET -24.65040 0.00000 0.00000
									CHANNELS 3 Zrotation Xrotation Yrotation
									JOINT RightHandThumb1
									{
										OFFSET -5.35114 -0.85590 3.97906
										CHANNELS 3 Zrotation Xrotation Yrotation
										JOINT RightHandThumb2
										{
											OFFSET -4.52789 0.00000 0.00000
											CHANNELS 3 Zrotation Xrotation Yrotation
											JOINT RightHandThumb3
											{
												OFFSET -2.46976 0.00000 0.00000
												CHANNELS 3 Zrotation Xrotation Yrotation
												End site
												{
													OFFSET 0.00000 0.00000 0.00000
												}
											}
										}
									}
									JOINT RightHandIndex1
									{
										OFFSET -14.26970 0.00000 2.88139
										CHANNELS 3 Zrotation Xrotation Yrotation
										JOINT RightHandIndex2
										{
											OFFSET -5.48836 0.00000 0.00000
											CHANNELS 3 Zrotation Xrotation Yrotation
											JOINT RightHandIndex3
											{
												OFFSET -3.01859 0.00000 0.00000
												CHANNELS 3 Zrotation Xrotation Yrotation
												End site
												{
													OFFSET 0.00000 0.00000 0.00000
												}
											}
										}
									}
									JOINT RightHandMiddle1
									{
										OFFSET -14.26970 0.00000 -0.09147
										CHANNELS 3 Zrotation Xrotation Yrotation
										JOINT RightHandMiddle2
										{
											OFFSET -6.17441 0.00000 0.00000
											CHANNELS 3 Zrotation Xrotation Yrotation
											JOINT RightHandMiddle3
											{
												OFFSET -3.56743 0.00000 0.00000
												CHANNELS 3 Zrotation Xrotation Yrotation
												End site
												{
													OFFSET 0.00000 0.00000 0.00000
												}
											}
										}
									}
									JOINT RightHandRing1
									{
										OFFSET -12.69180 0.00000 -3.06433
										CHANNELS 3 Zrotation Xrotation Yrotation
										JOINT RightHandRing2
										{
											OFFSET -5.62556 0.00000 0.00000
											CHANNELS 3 Zrotation Xrotation Yrotation
											JOINT RightHandRing3
											{
												OFFSET -3.56744 0.00000 0.00000
												CHANNELS 3 Zrotation Xrotation Yrotation
												End site
												{
													OFFSET 0.00000 0.00000 0.00000
												}
											}
										}
									}
									JOINT RightHandPinky1
									{
										OFFSET -11.11390 0.00000 -6.03719
										CHANNELS 3 Zrotation Xrotation Yrotation
										JOINT RightHandPinky2
										{
											OFFSET -4.52789 0.00000 0.00000
											CHANNELS 3 Zrotation Xrotation Yrotation
											JOINT RightHandPinky3
											{
												OFFSET -2.46976 0.00000 0.00000
												CHANNELS 3 Zrotation Xrotation Yrotation
												End site
												{
													OFFSET 0.00000 0.00000 0.00000
												}
											}
										}
									}
								}
							}
						}
					}
					JOINT LeftShoulder
					{
						OFFSET 0.01000 7.91373 5.19711
						CHANNELS 3 Zrotation Xrotation Yrotation
						JOINT LeftArm
						{
							OFFSET 18.41580 0.00000 0.00000
							CHANNELS 3 Zrotation Xrotation Yrotation
							JOINT LeftForeArm
							{
								OFFSET 29.11090 0.00000 0.00000
								CHANNELS 3 Zrotation Xrotation Yrotation
								JOINT LeftHand
								{
									OFFSET 24.65040 0.00000 0.00000
									CHANNELS 3 Zrotation Xrotation Yrotation
									JOINT LeftHandThumb1
									{
										OFFSET 5.35114 -0.85590 3.97906
										CHANNELS 3 Zrotation Xrotation Yrotation
										JOINT LeftHandThumb2
										{
											OFFSET 4.52789 0.00000 0.00000
											CHANNELS 3 Zrotation Xrotation Yrotation
											JOINT LeftHandThumb3
											{
												OFFSET 2.46977 0.00000 0.00000
												CHANNELS 3 Zrotation Xrotation Yrotation
												End site
												{
													OFFSET 0.00000 0.00000 0.00000
												}
											}
										}
									}
									JOINT LeftHandIndex1
									{
										OFFSET 14.26970 0.00000 2.88139
										CHANNELS 3 Zrotation Xrotation Yrotation
										JOINT LeftHandIndex2
										{
											OFFSET 5.48836 0.00000 0.00000
											CHANNELS 3 Zrotation Xrotation Yrotation
											JOINT LeftHandIndex3
											{
												OFFSET 3.01859 0.00000 0.00000
												CHANNELS 3 Zrotation Xrotation Yrotation
												End site
												{
													OFFSET 0.00000 0.00000 0.00000
												}
											}
										}
									}
									JOINT LeftHandMiddle1
									{
										OFFSET 14.26970 0.00000 -0.09147
										CHANNELS 3 Zrotation Xrotation Yrotation
										JOINT LeftHandMiddle2
										{
											OFFSET 6.17440 0.00000 0.00000
											CHANNELS 3 Zrotation Xrotation Yrotation
											JOINT LeftHandMiddle3
											{
												OFFSET 3.56744 0.00000 0.00000
												CHANNELS 3 Zrotation Xrotation Yrotation
												End site
												{
													OFFSET 0.00000 0.00000 0.00000
												}
											}
										}
									}
									JOINT LeftHandRing1
									{
										OFFSET 12.69180 0.00000 -3.06433
										CHANNELS 3 Zrotation Xrotation Yrotation
										JOINT LeftHandRing2
										{
											OFFSET 5.62556 0.00000 0.00000
											CHANNELS 3 Zrotation Xrotation Yrotation
											JOINT LeftHandRing3
											{
												OFFSET 3.56744 0.00000 0.00000
												CHANNELS 3 Zrotation Xrotation Yrotation
												End site
												{
													OFFSET 0.00000 0.00000 0.00000
												}
											}
										}
									}
									JOINT LeftHandPinky1
									{
										OFFSET 11.11390 0.00000 -6.03719
										CHANNELS 3 Zrotation Xrotation Yrotation
										JOINT LeftHandPinky2
										{
											OFFSET 4.52789 0.00000 0.00000
											CHANNELS 3 Zrotation Xrotation Yrotation
											JOINT LeftHandPinky3
											{
												OFFSET 2.46976 0.00000 0.00000
												CHANNELS 3 Zrotation Xrotation Yrotation
												End site
												{
													OFFSET 0.00000 0.00000 0.00000
												}
											}
										}
									}
								}
							}
						}
					}
					JOINT pCube4
					{
						OFFSET 0.00000 10.91090 1.10792
						CHANNELS 3 Zrotation Xrotation Yrotation
						End site
						{
							OFFSET 0.00000 0.00000 0.00000
						}
					}
				}
			}
		}
	}
	JOINT RightUpLeg
	{
		OFFSET -9.98441 0.00000 0.00000
		CHANNELS 3 Zrotation Xrotation Yrotation
		JOINT RightLeg
		{
			OFFSET 0.00000 -42.11790 0.00000
			CHANNELS 3 Zrotation Xrotation Yrotation
			JOINT RightFoot
			{
				OFFSET 0.00000 -45.00020 -0.00001
				CHANNELS 3 Zrotation Xrotation Yrotation
				JOINT RightForeFoot
				{
					OFFSET 0.00000 -3.74820 0.00000
					CHANNELS 3 Zrotation Xrotation Yrotation
					JOINT RightToeBase
					{
						OFFSET 0.00000 0.06325 14.43120
						CHANNELS 3 Zrotation Xrotation Yrotation
						End site
						{
							OFFSET 0.00000 0.00000 0.00000
						}
					}
				}
			}
		}
	}
	JOINT LeftUpLeg
	{
		OFFSET 9.98441 0.00000 0.00000
		CHANNELS 3 Zrotation Xrotation Yrotation
		JOINT LeftLeg
		{
			OFFSET 0.00000 -42.11800 0.00000
			CHANNELS 3 Zrotation Xrotation Yrotation
			JOINT LeftFoot
			{
				OFFSET 0.00000 -45.00070 0.00000
				CHANNELS 3 Zrotation Xrotation Yrotation
				JOINT LeftForeFoot
				{
					OFFSET 0.00000 -3.74824 0.00000
					CHANNELS 3 Zrotation Xrotation Yrotation
					JOINT LeftToeBase
					{
						OFFSET 0.00000 0.06325 14.43110
						CHANNELS 3 Zrotation Xrotation Yrotation
						End site
						{
							OFFSET 0.00000 0.00000 0.00000
						}
					}
				}
			}
		}
	}
}
MOTION
Frames: 4
Frame Time: 0.050000
0.00377620334034569 -0.018799179517014927 -0.02437744768305894 0.03284311599870009 -0.026676683334538848 -0.02280621029621386 -0.6508882884237496 2.6151483356777323 -1.2574974142893007 -0.963197769612791 3.702448950367011 0.36572018189212674 -1.1539851493676965 -1.187200628090339 -0.395420860507688 0.4732121703253282 0.16749115089149483 -0.6873137191277277 0.904840021982753 11.253172942731087 -3.355849653117076 0.22299446493687397 -1.6484088389419311 -9.268382815211467 1.3073627589499928 -18.22955728348011 -0.8759926688702944 -6.801210341498366 2.4753461953664795 -14.975622841499908 78.69860680235573 -1.523068373662054 15.142025954838253 35.0911917126627 -0.9417285404582569 97.69247162154554 3.4716399990558093 -0.024098966170886898 -1.7381420303175563 4.566015547342693 -0.10793026491881764 -1.5527688509127273 -0.027719430505058755 -0.024477157621534514 -56.239407894115395 -0.04271359325784716 0.011545880551517375 -56.24538624227917 -38.733457706361385 -0.030064711733984544 0.003120944647333822 -0.027979449290675133 -0.001995935083622482 0.02235415195958367 0.004929528347913598 0.043177764153763704 -0.004181835768709897 -36.680414340807346 0.002021938782907395 -0.04506147902308873 -0.036850014438358426 0.03260414695398202 -0.015078155478550315 -0.020974658332353322 0.04092562795414028 0.020020489170718202 -19.725290446679765 -0.0012040099466101666 0.04789993399335108 -0.018921247371861155 -0.004672576824350269 0.03146800348392324 0.038181712450364204 0.0447268426415508 0.0025044568287223763 24.06696245309693 0.0029344674723756755 0.04849271656184094 28.841714394190355 -0.005799357191060184 -0.023425640116859152 28.88939442892468 -0.030428584781451364 -0.0213885716780997 5.310227147154013 1.3942361636307559 11.969944004770799 -71.4504128294319 28.1639615396166 -7.363290364973781 -18.07731126731528 -3.3363274850325393 -85.02600903510465 -9.220970779707695 -4.584288939017251 3.584704229087783 -0.44883805027679063 0.09006009576548908 -8.147938532103785 -0.03193190622807941 0.028991389755294077 44.54393628120366 -0.027497087899301366 -0.03168528402021916 44.58985276356428 12.450358351166326 -0.004731039368624188 -0.003699991929398816 0.02826619387482369 0.0008407691852993983 -0.018560901336316608 -0.008453663514482795 -0.04570194861239848 0.04326023503117962 11.155411532413133 0.009032765015937281 -0.01424366672585507 -0.02058210145254577 -0.027812269978454426 -0.014758947131131335 -0.033998780641520114 -0.0463772810705287 0.017883310860297055 4.7628116610761495 0.03770602166889021 -0.0071226708905669 -0.029240497681777344 0.011924707573779171 0.0036583697146713983 -0.022885178560740724 0.016830699928516886 -0.04877292229119103 -5.628884510956904 0.036065215571771087 0.04339850430918084 -6.705814726760583 0.01704602222432261 0.044951099087030856 -6.7700684787828935 -0.0015759337516795702 0.030169154930886177 0.01886226431221218 -0.03704072478645581 -0.002318899763975301 8.062434360389487 3.4822282207156006 -19.19055286186574 0.039714182380257576 10.392158885781953 0.04667050997336543 -5.620510655989915 -15.672499348065344 3.232315159467633 0.037802155423417326 0.015213391509176806 0.01952469863439219 0.04941726465732985 4.670175842290804 -0.01629585889679404 12.445752522756896 -8.219729493657454 6.861983670256774 0.036261522540132506 46.34619745729606 0.007124271819246082 -4.329241554450042 -14.77398123282295 -3.833026216039984 0.00853340305471529 -0.03229307661472849 0.013347703170918074 -0.0057159494609275215 -10.697091185795884 -0.04364751440483917 
0.04575708436741572 0.015994044696460062 -0.0046605920107424 -0.016866331407193735 -0.013719014984440774 0.02960408103700304 -0.9346177105750275 2.4466487632280347 -1.2320286761218167 -0.9723804528601028 3.670688325112787 0.4226144600647807 -1.1283082057806768 -1.1638959261594655 -0.4127588569179224 0.37415367817364636 0.1741080301504315 -0.6559157737769948 0.9344805576815624 11.173757961240634 -3.237892248107468 0.13434392173836768 -1.6628751679831402 -9.057868138044649 1.2471797847688015 -18.20010092329846 -0.8537691356074201 -6.620959330767229 2.4885594731461067 -14.827173274623112 77.85077517395472 -1.1886389739077359 15.575947207841947 30.57380405323556 -0.8009150461944762 99.58760486634733 3.0205173406222405 0.013481580702374974 -1.3637621035645777 4.549110488192373 -0.08737055066290302 -1.5621874072694912 0.004454257353407945 0.01100385185021783 -56.268957074708716 -0.004091844003002827 -0.037383126325627895 -56.254292440342766 -38.747668107837285 0.027457350616100346 0.022423213501390357 -0.011145792462744192 -0.019657332538217564 -0.001515025238112809 -0.01629722994457784 -0.04637705934757631 0.011282091763424151 -36.65658590869508 -0.024408136204182387 -0.02156396593812179 0.04304532542177083 -0.0316094466782054 -0.030249381629635235 -0.01061341367844439 0.026499756820938067 -0.04567123419624173 -19.764487979431912 -0.01370791997817366 0.04609882439983061 -0.04255574427242625 -0.02090492309664403 0.047969395558098864 -0.01737780265020716 0.0031863232199543915 -0.033788967059009564 24.087582876419297 0.0022575800759955943 -0.002463746222937598 28.882024608990587 -0.020199274203997714 -0.0297563271237464 28.875873540043695 -0.03517370398109671 0.0322513620656783 5.1654729609498045 1.3386930318116144 11.87363441935259 -71.10085283179173 29.077143694639883 -7.606371516747393 -13.224536647045435 -3.683979927682615 -85.43138698545236 -9.32818297530413 -4.392389305027795 3.418376759979425 -0.4959538433210302 0.06690791720504485 -8.092791500458855 -0.005131684686184791 0.002262023552563328 44.58621917809814 0.01430228922431471 -0.009375091879614444 44.600191834406914 12.456101505383938 0.01409355343512731 -0.029596735396849972 -0.002483573836146359 -0.03848921907901045 0.005703182111327016 -0.00014651652218370168 0.03414976937279255 -0.018023340283036243 11.118067261650278 0.008980431651408983 -0.007609334179744594 0.030329057222284357 -0.0048783508682687235 -0.01736261691201382 0.030062220088727616 0.02677154546733739 -0.018263333378219584 4.812527491137291 0.03763068764475611 -0.009017773108759161 6.383831429650597e-06 -0.04539013997289039 -0.00948655577450964 0.04805072139959901 0.006635406819647476 0.028705011058649962 -5.642188239896372 -0.038089502964478605 0.04765688719918888 -6.761488129395391 -0.02533453158417394 -0.01150718544447018 -6.762441866969324 0.007426808407019884 -0.0223417608646309 -0.02808706251515653 0.018043206790644268 0.009382742104070202 8.01660112041119 3.5289801853799854 -19.22965516796821 -0.04839584533585528 10.417189452113249 0.009954040078719518 -5.6565366676875914 -15.67320819158425 3.1662532506757803 0.03343644272241607 -0.03905961115625566 -0.011373382537809354 -0.0029051049070601665 4.707732960643442 -0.007588880289460171 12.428776175284893 -8.239609527528948 6.913346386312439 -0.043413614474841 46.419455230444065 -0.02281923651954651 -4.331806897391956 -14.7508359261366 -3.82948128851148 -0.04537566707896572 0.0017052233923820148 0.042381946751555516 0.0066402381627277745 -10.776490876976025 0.009578571224263109 
0.03296175522046672 -0.03237985201614263 0.03716968920366111 -0.02671513049253286 -0.003203909929498877 0.017401512623796314 -1.0688966690787207 2.2871095648938122 -1.21848075027625 -0.941914862702155 3.629040628806848 0.3815186981259094 -1.1613247095387293 -1.1824037644827508 -0.3472502148670495 0.37605019334289314 0.11612015758485414 -0.7297036375806266 0.9311107822121337 11.187968640004762 -3.122048780997912 0.17898452303305476 -1.5985872824034912 -8.856466536814972 1.2407999738309738 -18.10708877460421 -0.8181430908646243 -6.648974416548785 2.4952360293469122 -14.716827885125815 77.1557748113744 -0.5238829151637274 15.988151257516584 27.21800407623521 -0.8359329895464003 101.07377475836624 2.777807007477039 0.04582514013494121 -1.0634820452102345 4.483210179439742 -0.08740071563935653 -1.6197308951129796 0.004203279535973869 0.022884535515185638 -56.27625361078432 0.011253635007534112 0.0242327636574538 -56.19750251156559 -38.814895636201456 -0.03474103197373874 0.012212808839671309 0.049300896687990106 0.03887146240947608 -0.040308058789392844 0.01910239502640701 -0.02000200119944085 -0.013768802191067273 -36.6883478133397 0.04233130871002815 0.0011764140503042746 0.04906522472344168 -0.02678591256278676 0.00022683459703039008 -0.02692443078520769 -0.0339604119844957 0.027232087402345204 -19.80330708147385 0.034943300182973494 0.04367979359402314 -0.014329423767898513 -0.01760984765697086 -0.018486053190254308 0.02555295459727528 -0.022603098432455702 -0.007149785372249861 24.097503294819532 -0.0053318461492898655 -0.020726050005726936 28.874031748102997 0.005159627593128832 -0.014822878767187433 28.838267161959003 0.026490146878786435 0.021151339449873182 5.190402365056598 1.3838549918133751 11.898403746846771 -70.94194272347303 29.906516733796366 -7.908652261392201 -10.129788781107814 -3.8572675416584103 -86.29255509465085 -9.443481973571807 -4.254217429535141 3.253616181899242 -0.4700653182150335 0.11106465747729238 -8.15566944814594 0.03518996931978832 0.000329456790752073 44.5707415429279 0.041897656978139526 0.04502730736302374 44.57877873177481 12.49799796283458 0.007831644146108109 -0.026315295201180373 0.04581048719061182 0.014361347130351823 -0.03948540133146159 -0.01495477282414406 0.02359549768755214 -0.017125977858056432 11.093433120590197 0.03875828257811133 0.016956962974139702 -0.024150876657792603 -0.013819778805900094 0.007978446173432597 0.0033341444311732076 0.045003727460110846 -0.036547529408927006 4.776946599386977 -0.025874558767023846 0.04143146949577942 0.010942444307025694 0.03262007337091191 0.00997545891602365 0.019894382181550395 0.010457918201256714 0.026910908582117924 -5.55510596852417 -0.04001242542222033 -0.020796620523024653 -6.721964299232705 0.002598168138417854 0.0003741687016227323 -6.756491668667594 0.013645079777532935 -0.009849000695968729 -0.026430476405475398 0.007902034151105405 -0.018806685896939113 8.087389137819052 3.4844423272175993 -19.217743742509068 -0.010507172802829945 10.379781222767875 -0.016014406577596303 -5.645436953234924 -15.622134144037851 3.1668190962526612 0.0020673880149765216 0.0366259241842105 0.048310101431771814 -0.024656595419234914 4.678685784717603 0.006723870121480613 12.414292020530507 -8.227297379167274 6.84102456292889 -0.027616573418198488 46.400161002254144 -0.018716198804644684 -4.339518977118235 -14.796697873500944 -3.8646807290482847 0.003701693191039375 0.039206862996881114 0.037775189224513374 0.005743777113526177 -10.697467666040984 -0.027951618801078 
-0.02714807768659614 0.03869404948760074 -0.04932849602042735 -0.02326516568200279 0.040794025065015185 0.045956194358172886 -1.2342636585815352 2.141684611917651 -1.1845415996225097 -0.9361524831217531 3.6239267053100166 0.4023563200193754 -1.1308816260985344 -1.2695229915673214 -0.4063567361093336 0.307800791981816 0.0940491262764046 -0.6879266799560257 0.9334773666820806 11.164436841975258 -3.078013655897558 0.2148251853049634 -1.5746792029755956 -8.63683422300909 1.2937329729605436 -17.998281972857534 -0.7833919321093957 -6.654974345065069 2.5457372312913162 -14.659895000366191 76.87559890664473 -0.24865909222253038 16.860981567269125 25.21404987025293 -0.7738189916478326 101.95845940941058 2.651871382992742 0.05127105699690361 -0.8405858335967773 4.515021446434867 -0.13267336508635272 -1.6257295987427305 -0.003900644061259974 -0.020994339763608195 -56.2212933950044 0.0048491588407443545 -0.028007940026404506 -56.19234744554491 -38.75447289718576 0.01936596864608937 0.023847709580941113 0.02276011888269296 -0.02727029206895647 0.012561708464929024 -0.007907698994329863 0.02777369951255741 0.01877645308244162 -36.694708423455644 -0.006816025428000707 0.04722380222758955 0.047172242519269755 -0.006024868729664497 -0.024051144340804843 -0.00040589246175830063 -0.034310005103369505 -0.0431902176138416 -19.769963398077355 0.03599116495780065 -0.006896672207422048 -0.009395104578205206 0.03770377511885419 -0.01688349356253392 -0.023553762174273116 0.002500054199019167 0.02104503694922872 24.03431511545812 0.011424424022649687 0.011615250156649923 28.851928389146106 0.014195100009960238 -0.0029420204842903483 28.849285336210105 0.04091671321402816 0.01548578376510557 5.2419784694446685 1.4203439769629729 11.871245094961848 -70.79212915632131 30.337112798617547 -8.218184528995522 -8.681336314171713 -3.874379398052504 -87.54134631351256 -9.461409308481965 -4.135976085805219 3.0368698633835938 -0.4635386232243109 0.024617028729101903 -8.089802395876633 -0.01913364032074737 -0.03165217884260055 44.59853265955825 0.032009738877363136 -0.005373562346075188 44.52341529252273 12.4160344263264 -0.01225987320488296 0.03380490032211934 0.03274433570476614 -0.0008257831499845338 -0.01955794788643592 0.0035186388141696034 -0.017873485037958704 -0.010643689700643735 11.096201076686649 0.00040405572625158806 -0.00866099214451855 0.02205873555039204 -0.026920351024869955 -0.040928070514073565 0.04155790020326904 0.03224697067855416 -0.008363727968584499 4.761239850249332 0.0003982853369672349 -0.002736677517766626 0.04336085034269188 0.023469696304325962 0.04756741766847507 -0.02640981028442206 -0.006094090390276286 -0.027008767488955913 -5.573218549523118 0.005922262580188773 0.04674607941496698 -6.755019982539963 0.0336879937677196 0.03880524263182766 -6.704671534069646 0.027429804060780168 0.048137869319042424 -0.02032583819362201 0.03650160280027395 -0.010694053363706763 8.034540910048113 3.4455792128703706 -19.22252637948392 0.027352846080394146 10.399739570812004 0.00016680258717182393 -5.600027790434371 -15.62183842632063 3.1838134173810597 -0.018611671103750366 -0.002266426074536798 -0.03879772969824309 -0.019915609368220673 4.660700686026569 -0.026226020239292748 12.410612850074036 -8.241414158193503 6.882566225451011 0.03353887710962418 46.39294303366403 0.007572227091308288 -4.3167701795859 -14.778881112375684 -3.831608504613438 0.03494188629340574 -0.0052490065883288506 -0.021810851126726406 0.010140446100609626 -10.73823655202486 -0.000459245881950779 
